<?xml version="1.0" encoding="utf-8"?>
<!-- Generator: Adobe Illustrator 16.0.0, SVG Export Plug-In . SVG Version: 6.00 Build 0)  -->
<!DOCTYPE svg PUBLIC "-//W3C//DTD SVG 1.1//EN" "http://www.w3.org/Graphics/SVG/1.1/DTD/svg11.dtd">
<svg version="1.1" id="Layer_1" xmlns="http://www.w3.org/2000/svg" xmlns:xlink="http://www.w3.org/1999/xlink" x="0px" y="0px"
	 width="204.907px" height="78.979px" viewBox="0 0 204.907 78.979" enable-background="new 0 0 204.907 78.979"
	 xml:space="preserve">
<g>
	<polygon points="0.743,51.975 1.608,42.066 7.665,42.066 7.556,43.268 2.826,43.268 2.577,46.155 6.619,46.155 6.515,47.359 
		2.47,47.359 2.169,50.771 6.903,50.771 6.796,51.975 	"/>
	<path d="M9.495,51.975l0.655-7.511h1.232l-0.098,1.104c0.382-0.344,0.812-0.649,1.301-0.918c0.485-0.264,0.96-0.398,1.429-0.398
		c0.725,0,1.235,0.207,1.542,0.618c0.298,0.414,0.41,1.112,0.322,2.095l-0.437,5.01h-1.23l0.384-4.432
		c0.064-0.716,0.07-1.195,0.02-1.434c-0.051-0.242-0.153-0.414-0.305-0.522c-0.153-0.106-0.387-0.163-0.694-0.163
		c-0.314,0-0.693,0.122-1.134,0.36c-0.44,0.241-0.871,0.532-1.294,0.876l-0.462,5.314H9.495z"/>
	<path d="M18.357,48.15c0.109-1.227,0.462-2.18,1.061-2.867c0.599-0.688,1.367-1.032,2.304-1.032c0.757,0,1.428,0.278,2.015,0.837
		l0.054-0.624h1.23l-0.64,7.345c-0.09,1.004-0.404,1.756-0.946,2.25c-0.54,0.494-1.386,0.746-2.539,0.746
		c-1.1,0-1.988-0.24-2.664-0.711l0.543-0.992c0.604,0.447,1.344,0.67,2.213,0.67c0.699,0,1.221-0.146,1.557-0.439
		c0.339-0.289,0.536-0.775,0.596-1.446l0.079-0.876c-0.307,0.273-0.661,0.501-1.074,0.686c-0.406,0.188-0.839,0.279-1.297,0.279
		c-0.918,0-1.592-0.324-2.016-0.981S18.25,49.391,18.357,48.15 M19.638,48.119c-0.087,0.961,0.003,1.662,0.267,2.097
		c0.261,0.438,0.688,0.655,1.281,0.655c0.685,0,1.397-0.32,2.13-0.967l0.328-3.74c-0.608-0.543-1.227-0.811-1.861-0.811
		c-0.626,0-1.12,0.238-1.486,0.726C19.934,46.564,19.712,47.247,19.638,48.119"/>
	<path d="M28.038,42.563c0.021-0.252,0.098-0.438,0.235-0.551c0.135-0.119,0.343-0.182,0.625-0.182c0.291,0,0.492,0.063,0.603,0.171
		c0.119,0.108,0.164,0.299,0.142,0.562c-0.027,0.285-0.108,0.48-0.248,0.588c-0.138,0.1-0.346,0.148-0.628,0.148
		c-0.299,0-0.501-0.064-0.604-0.193C28.055,42.975,28.016,42.797,28.038,42.563 M27.393,51.975l0.656-7.511h1.232l-0.66,7.511
		H27.393z"/>
	<path d="M31.643,51.975l0.657-7.511h1.231l-0.096,1.104c0.375-0.344,0.81-0.649,1.296-0.918c0.485-0.264,0.964-0.398,1.432-0.398
		c0.721,0,1.235,0.207,1.542,0.618c0.299,0.414,0.412,1.112,0.323,2.095l-0.438,5.01h-1.23l0.386-4.432
		c0.065-0.716,0.069-1.195,0.022-1.434c-0.052-0.242-0.157-0.414-0.309-0.522c-0.15-0.106-0.386-0.163-0.694-0.163
		c-0.314,0-0.693,0.122-1.129,0.36c-0.444,0.241-0.875,0.532-1.294,0.876l-0.467,5.314H31.643z"/>
	<path d="M40.495,48.28c0.123-1.376,0.478-2.386,1.073-3.044c0.592-0.66,1.432-0.985,2.514-0.985c0.974,0,1.682,0.281,2.118,0.841
		c0.438,0.561,0.607,1.424,0.502,2.592l-0.061,0.686h-4.878c-0.087,0.992,0.022,1.699,0.319,2.122
		c0.305,0.418,0.83,0.631,1.583,0.631c0.329,0,0.628-0.067,0.895-0.213c0.265-0.142,0.529-0.364,0.79-0.681l0.959,0.629
		c-0.322,0.433-0.699,0.762-1.132,0.988c-0.427,0.231-0.993,0.352-1.694,0.352c-1.118,0-1.923-0.327-2.416-0.978
		C40.572,50.575,40.38,49.594,40.495,48.28 M41.862,47.398h3.664c0.049-0.668-0.047-1.19-0.29-1.56
		c-0.24-0.372-0.67-0.559-1.286-0.559c-0.585,0-1.04,0.165-1.366,0.502C42.264,46.12,42.021,46.659,41.862,47.398"/>
	<path d="M48.818,48.28c0.12-1.376,0.478-2.386,1.072-3.044c0.596-0.66,1.433-0.985,2.515-0.985c0.975,0,1.683,0.281,2.117,0.841
		c0.439,0.561,0.608,1.424,0.504,2.592l-0.058,0.686h-4.883c-0.085,0.992,0.022,1.699,0.321,2.122
		c0.303,0.418,0.83,0.631,1.579,0.631c0.335,0,0.633-0.067,0.897-0.213c0.266-0.142,0.528-0.364,0.79-0.681l0.961,0.629
		c-0.325,0.433-0.7,0.762-1.132,0.988c-0.428,0.231-0.995,0.352-1.696,0.352c-1.115,0-1.923-0.327-2.417-0.978
		C48.895,50.575,48.702,49.594,48.818,48.28 M50.181,47.398h3.666c0.05-0.668-0.046-1.19-0.287-1.56
		c-0.244-0.372-0.673-0.559-1.289-0.559c-0.584,0-1.038,0.165-1.361,0.502C50.587,46.12,50.347,46.659,50.181,47.398"/>
	<path d="M57.199,51.975l0.656-7.511h1.232l-0.107,1.222c0.376-0.352,0.765-0.66,1.167-0.933c0.402-0.267,0.835-0.401,1.296-0.401
		c0.312,0,0.556,0.049,0.732,0.15l-0.367,1.184c-0.13-0.062-0.319-0.093-0.564-0.093c-0.369,0-0.735,0.093-1.087,0.259
		c-0.354,0.172-0.779,0.481-1.27,0.934l-0.458,5.189H57.199z"/>
	<path d="M64.233,42.563c0.018-0.252,0.097-0.438,0.233-0.551c0.134-0.119,0.342-0.182,0.624-0.182c0.292,0,0.494,0.063,0.61,0.171
		c0.114,0.108,0.159,0.299,0.135,0.562c-0.025,0.285-0.106,0.48-0.243,0.588c-0.138,0.1-0.345,0.148-0.628,0.148
		c-0.303,0-0.505-0.064-0.606-0.193C64.251,42.975,64.212,42.797,64.233,42.563 M63.589,51.975l0.655-7.511h1.231l-0.658,7.511
		H63.589z"/>
	<path d="M67.841,51.975l0.654-7.511h1.234l-0.099,1.104c0.378-0.344,0.812-0.649,1.297-0.918c0.487-0.264,0.963-0.398,1.431-0.398
		c0.724,0,1.24,0.207,1.542,0.618c0.304,0.414,0.412,1.112,0.323,2.095l-0.437,5.01h-1.23l0.388-4.432
		c0.062-0.716,0.068-1.195,0.019-1.434c-0.051-0.242-0.154-0.414-0.306-0.522c-0.155-0.106-0.386-0.163-0.695-0.163
		c-0.317,0-0.694,0.122-1.135,0.36c-0.44,0.241-0.869,0.532-1.292,0.876l-0.467,5.314H67.841z"/>
	<path d="M76.703,48.15c0.105-1.227,0.459-2.18,1.058-2.867c0.602-0.688,1.369-1.032,2.305-1.032c0.757,0,1.429,0.278,2.016,0.837
		l0.051-0.624h1.232l-0.641,7.345c-0.088,1.004-0.402,1.756-0.944,2.25c-0.541,0.494-1.387,0.746-2.541,0.746
		c-1.1,0-1.991-0.24-2.665-0.711l0.546-0.992c0.605,0.447,1.344,0.67,2.213,0.67c0.7,0,1.218-0.146,1.559-0.439
		c0.336-0.289,0.533-0.775,0.594-1.446l0.077-0.876c-0.305,0.273-0.665,0.501-1.07,0.686c-0.41,0.188-0.838,0.279-1.298,0.279
		c-0.92,0-1.595-0.324-2.017-0.981C76.756,50.336,76.596,49.391,76.703,48.15 M77.98,48.119c-0.085,0.961,0.004,1.662,0.265,2.097
		c0.262,0.438,0.692,0.655,1.283,0.655c0.688,0,1.396-0.32,2.133-0.967l0.325-3.74c-0.608-0.543-1.227-0.811-1.859-0.811
		c-0.627,0-1.119,0.238-1.487,0.726C78.276,46.564,78.055,47.247,77.98,48.119"/>
	<path d="M89.908,50.242l1.136-0.717c0.472,0.986,1.291,1.48,2.457,1.48c0.702,0,1.267-0.143,1.696-0.438
		c0.427-0.295,0.664-0.697,0.705-1.209c0.029-0.289-0.019-0.539-0.127-0.735c-0.11-0.201-0.264-0.371-0.461-0.506
		c-0.203-0.136-0.435-0.243-0.703-0.322c-0.269-0.073-0.539-0.155-0.823-0.241c-0.474-0.134-0.911-0.267-1.324-0.386
		c-0.411-0.118-0.764-0.278-1.05-0.476c-0.293-0.207-0.512-0.461-0.662-0.771c-0.15-0.313-0.201-0.717-0.159-1.208
		c0.079-0.876,0.421-1.573,1.031-2.083c0.61-0.516,1.481-0.773,2.606-0.773c0.896,0,1.6,0.166,2.104,0.502
		c0.508,0.328,0.894,0.759,1.157,1.273l-1.125,0.743c-0.219-0.431-0.5-0.756-0.854-0.995c-0.344-0.23-0.813-0.352-1.387-0.352
		c-0.643,0-1.154,0.145-1.535,0.429c-0.384,0.286-0.596,0.666-0.637,1.14c-0.021,0.25,0.014,0.455,0.104,0.631
		c0.094,0.168,0.236,0.311,0.424,0.424c0.188,0.113,0.432,0.22,0.722,0.303s0.619,0.184,0.983,0.29
		c0.438,0.127,0.854,0.249,1.252,0.372c0.401,0.115,0.744,0.283,1.026,0.499c0.286,0.216,0.501,0.495,0.646,0.833
		c0.15,0.348,0.201,0.783,0.152,1.31c-0.078,0.927-0.445,1.646-1.1,2.155c-0.652,0.51-1.566,0.768-2.736,0.768
		c-0.894,0-1.621-0.16-2.191-0.475C90.672,51.398,90.229,50.906,89.908,50.242"/>
	<path d="M99.648,51.975l0.656-7.511h1.231l-0.095,1.104c0.353-0.346,0.736-0.655,1.164-0.922c0.43-0.26,0.867-0.396,1.324-0.396
		c0.506,0,0.899,0.116,1.184,0.349c0.283,0.229,0.453,0.602,0.506,1.104c0.428-0.407,0.854-0.755,1.291-1.032
		c0.426-0.276,0.888-0.419,1.387-0.419c0.454,0,0.814,0.096,1.076,0.292c0.26,0.19,0.438,0.47,0.534,0.837
		c0.097,0.366,0.114,0.893,0.058,1.584l-0.439,5.01h-1.232l0.389-4.432c0.067-0.747,0.078-1.238,0.043-1.479
		c-0.035-0.237-0.119-0.406-0.256-0.496c-0.138-0.096-0.348-0.146-0.641-0.146c-0.245,0-0.536,0.091-0.859,0.267
		c-0.326,0.178-0.76,0.5-1.302,0.971l-0.467,5.314h-1.229l0.391-4.433c0.059-0.709,0.076-1.19,0.039-1.433
		c-0.037-0.248-0.117-0.426-0.252-0.531c-0.127-0.1-0.332-0.155-0.629-0.155c-0.266,0-0.586,0.108-0.963,0.323
		c-0.377,0.212-0.783,0.518-1.209,0.913l-0.466,5.313h-1.233V51.975z"/>
	<path d="M112.234,49.865c0.048-0.521,0.185-0.946,0.416-1.286c0.236-0.341,0.547-0.613,0.951-0.808
		c0.4-0.197,0.971-0.338,1.709-0.426l1.86-0.166l0.033-0.365c0.046-0.573-0.081-0.97-0.38-1.179c-0.305-0.204-0.742-0.31-1.309-0.31
		c-0.506,0-0.906,0.085-1.191,0.264c-0.291,0.176-0.51,0.365-0.643,0.573l-0.955-0.617c0.264-0.417,0.645-0.735,1.131-0.962
		c0.488-0.223,1.082-0.334,1.783-0.334c1.073,0,1.83,0.198,2.268,0.587c0.43,0.394,0.605,1.072,0.521,2.031l-0.447,5.104h-1.234
		l0.086-0.94c-0.414,0.339-0.818,0.614-1.229,0.832c-0.402,0.221-0.848,0.331-1.332,0.331c-0.719,0-1.254-0.221-1.603-0.656
		C112.32,51.104,112.178,50.546,112.234,49.865 M113.512,49.834c-0.039,0.445,0.045,0.771,0.25,0.968
		c0.209,0.196,0.534,0.288,0.986,0.288c0.186,0,0.372-0.033,0.563-0.099c0.184-0.072,0.373-0.158,0.556-0.259
		c0.185-0.105,0.368-0.223,0.544-0.351c0.178-0.135,0.349-0.262,0.518-0.387l0.16-1.829l-1.213,0.109
		c-0.818,0.068-1.413,0.231-1.77,0.479C113.75,48.996,113.553,49.359,113.512,49.834"/>
	<path d="M120.945,51.975l0.656-7.511h1.23l-0.104,1.222c0.373-0.352,0.76-0.66,1.166-0.933c0.401-0.267,0.83-0.401,1.295-0.401
		c0.308,0,0.551,0.049,0.73,0.15l-0.371,1.184c-0.126-0.062-0.313-0.093-0.561-0.093c-0.368,0-0.731,0.093-1.086,0.259
		c-0.355,0.172-0.779,0.481-1.275,0.934l-0.453,5.189H120.945z"/>
	<path d="M127.025,45.496l0.086-1.032h1.078l0.179-2.086h1.231l-0.186,2.086h1.908l-0.094,1.032h-1.903l-0.345,3.969
		c-0.058,0.607-0.033,1.046,0.065,1.309c0.101,0.261,0.358,0.39,0.779,0.39c0.362,0,0.704-0.065,1.026-0.199l0.23,1.011
		c-0.491,0.147-0.973,0.224-1.436,0.224c-0.767,0-1.297-0.201-1.588-0.604c-0.3-0.399-0.41-1.026-0.334-1.889l0.368-4.209
		L127.025,45.496L127.025,45.496z"/>
	<path d="M133.141,51.975l0.658-7.511h1.227l-0.094,1.104c0.377-0.344,0.813-0.649,1.293-0.918c0.49-0.264,0.971-0.398,1.435-0.398
		c0.728,0,1.239,0.207,1.545,0.618c0.301,0.414,0.409,1.112,0.323,2.095l-0.438,5.01h-1.229l0.387-4.432
		c0.064-0.716,0.068-1.195,0.018-1.434c-0.049-0.242-0.15-0.414-0.305-0.522c-0.152-0.106-0.385-0.163-0.693-0.163
		c-0.315,0-0.693,0.122-1.136,0.36c-0.44,0.241-0.868,0.532-1.292,0.876l-0.464,5.314H133.141z"/>
	<path d="M141.991,48.28c0.124-1.376,0.483-2.386,1.073-3.044c0.593-0.66,1.435-0.985,2.517-0.985c0.972,0,1.677,0.281,2.112,0.841
		c0.439,0.561,0.609,1.424,0.504,2.592l-0.057,0.686h-4.879c-0.091,0.992,0.018,1.699,0.319,2.122
		c0.303,0.418,0.828,0.631,1.575,0.631c0.337,0,0.633-0.067,0.9-0.213c0.26-0.142,0.527-0.364,0.789-0.681l0.963,0.629
		c-0.326,0.433-0.701,0.762-1.133,0.988c-0.432,0.231-0.998,0.352-1.703,0.352c-1.111,0-1.92-0.327-2.41-0.978
		C142.068,50.575,141.878,49.594,141.991,48.28 M143.359,47.398h3.66c0.055-0.668-0.047-1.19-0.285-1.56
		c-0.246-0.372-0.67-0.559-1.289-0.559c-0.586,0-1.038,0.165-1.364,0.502C143.76,46.12,143.516,46.659,143.359,47.398"/>
	<path d="M149.971,50.857l1.039-0.604c0.322,0.609,0.899,0.907,1.736,0.907c0.544,0,0.96-0.099,1.251-0.31
		c0.285-0.209,0.446-0.494,0.476-0.845c0.019-0.21-0.014-0.383-0.099-0.514c-0.084-0.136-0.22-0.245-0.41-0.343
		c-0.194-0.102-0.593-0.235-1.198-0.399c-0.875-0.21-1.481-0.487-1.814-0.854s-0.471-0.849-0.422-1.453
		c0.063-0.661,0.349-1.196,0.861-1.594c0.512-0.397,1.188-0.601,2.031-0.601c0.655,0,1.194,0.127,1.611,0.386
		c0.426,0.258,0.724,0.563,0.896,0.926l-1.039,0.603c-0.332-0.588-0.865-0.883-1.589-0.883c-0.409,0-0.766,0.092-1.065,0.274
		c-0.297,0.18-0.465,0.463-0.498,0.842c-0.03,0.346,0.076,0.588,0.307,0.744c0.236,0.153,0.613,0.297,1.13,0.426
		c0.829,0.219,1.401,0.427,1.706,0.615c0.309,0.193,0.523,0.426,0.661,0.711c0.129,0.275,0.175,0.631,0.14,1.064
		c-0.064,0.699-0.359,1.245-0.89,1.643c-0.528,0.395-1.254,0.596-2.17,0.596c-0.625,0-1.179-0.119-1.651-0.352
		C150.495,51.609,150.16,51.282,149.971,50.857"/>
	<path d="M157.646,50.857l1.041-0.604c0.322,0.609,0.904,0.907,1.737,0.907c0.541,0,0.96-0.099,1.248-0.31
		c0.288-0.209,0.444-0.494,0.479-0.845c0.014-0.21-0.021-0.383-0.1-0.514c-0.082-0.136-0.222-0.245-0.416-0.343
		c-0.188-0.102-0.584-0.235-1.195-0.399c-0.875-0.21-1.479-0.487-1.812-0.854c-0.33-0.367-0.472-0.849-0.42-1.453
		c0.058-0.661,0.345-1.196,0.856-1.594c0.509-0.397,1.191-0.601,2.033-0.601c0.655,0,1.19,0.127,1.61,0.386
		c0.421,0.258,0.724,0.563,0.896,0.926l-1.035,0.603c-0.342-0.588-0.866-0.883-1.592-0.883c-0.408,0-0.765,0.092-1.063,0.274
		c-0.299,0.18-0.468,0.463-0.498,0.842c-0.032,0.346,0.071,0.588,0.306,0.744c0.234,0.153,0.613,0.297,1.129,0.426
		c0.83,0.219,1.401,0.427,1.709,0.615c0.307,0.193,0.523,0.426,0.655,0.711c0.13,0.275,0.179,0.631,0.138,1.064
		c-0.057,0.699-0.355,1.245-0.885,1.643c-0.533,0.395-1.255,0.596-2.169,0.596c-0.628,0-1.18-0.119-1.653-0.352
		C158.174,51.609,157.842,51.282,157.646,50.857"/>
	<path fill="#20419A" d="M16.752,7.494c1.812,0,3.217,0.341,4.178,1.022c0.99,0.701,1.763,1.65,2.299,2.823l0.483,1.053l5.463-3.503
		l-0.417-0.871c-1.082-2.264-2.615-3.917-4.561-4.903c-1.89-0.956-4.212-1.444-6.893-1.444c-4.753,0-8.532,1.468-11.225,4.364
		C3.438,8.872,1.846,13.198,1.35,18.874c-0.488,5.605,0.348,9.883,2.482,12.733c2.176,2.906,5.79,4.381,10.74,4.381
		c2.273,0,4.345-0.29,6.15-0.859c1.771-0.555,3.582-1.324,5.405-2.289l0.584-0.311l1.309-15.008H14.24l-0.516,5.914h7.493
		l-0.484,5.491c-0.925,0.362-1.792,0.655-2.586,0.869c-0.946,0.24-1.977,0.367-3.07,0.367c-2.757,0-4.686-0.823-5.897-2.512
		c-1.246-1.745-1.697-4.676-1.344-8.734c0.349-3.985,1.271-6.949,2.739-8.806C11.97,8.351,13.988,7.494,16.752,7.494"/>
	<path fill="#20419A" d="M47.919,11.197c-1.551-1.4-4.081-2.081-7.735-2.081c-2.319,0-4.346,0.391-6.013,1.147
		c-1.734,0.791-3.104,1.949-4.056,3.452L29.54,14.62l4.705,3.037l0.641-0.962c0.324-0.486,0.866-0.965,1.61-1.417
		c0.711-0.431,1.759-0.648,3.116-0.648c1.551,0,2.724,0.269,3.499,0.802c0.636,0.435,0.893,1.362,0.771,2.752l-0.013,0.144
		l-4.831,0.443c-2.452,0.284-4.318,0.751-5.703,1.435c-1.435,0.707-2.591,1.696-3.434,2.929c-0.836,1.226-1.339,2.755-1.499,4.545
		c-0.205,2.389,0.322,4.39,1.571,5.948c1.283,1.597,3.221,2.401,5.76,2.401c1.699,0,3.284-0.393,4.718-1.166
		c0.689-0.374,1.385-0.797,2.082-1.279l-0.153,1.754h6.002l1.483-16.978C50.159,15.035,49.503,12.629,47.919,11.197 M37.406,30.429
		c-1.12,0-1.918-0.218-2.374-0.646c-0.417-0.393-0.577-1.131-0.487-2.195c0.099-1.134,0.525-1.924,1.34-2.488
		c0.637-0.443,2.013-1.02,4.943-1.278l2.581-0.243l-0.35,3.999l-1.175,0.872c-0.499,0.372-1.021,0.708-1.551,1.003
		c-0.519,0.287-1.05,0.531-1.576,0.729C38.308,30.345,37.85,30.429,37.406,30.429"/>
	<path fill="#20419A" d="M67.772,10.663c-1.597-1.026-3.373-1.547-5.292-1.547c-3.298,0-6.029,1.299-8.124,3.858
		c-2.007,2.457-3.206,5.748-3.56,9.793c-0.359,4.101,0.196,7.342,1.654,9.641c1.531,2.398,3.911,3.619,7.073,3.619
		c1.551,0,3.063-0.325,4.49-0.973c0.596-0.271,1.167-0.566,1.701-0.894l-0.1,1.175h5.996L74.707,0h-6.002L67.772,10.663z
		 M62.48,14.719c1.588,0,3.187,0.656,4.766,1.955l-0.993,11.359c-0.728,0.594-1.556,1.136-2.469,1.617
		c-1,0.528-1.993,0.778-3.036,0.778c-1.111,0-4.488,0-3.811-7.754c0.247-2.848,0.917-4.933,1.984-6.196
		C59.922,15.292,61.088,14.719,62.48,14.719"/>
	<polygon fill="#F26722" points="98.012,35.337 119.032,35.337 119.555,29.43 104.818,29.43 105.559,20.961 118.15,20.961 
		118.669,15.048 106.072,15.048 106.672,8.23 121.408,8.23 121.925,2.321 100.898,2.321 	"/>
	<path fill="#F26722" d="M133.223,9.116c-3.645,0-6.594,1.163-8.779,3.457c-2.139,2.25-3.418,5.631-3.807,10.052
		c-0.383,4.349,0.309,7.697,2.043,9.941c1.778,2.304,4.529,3.463,8.192,3.463c3.657,0,6.612-1.178,8.767-3.504
		c2.107-2.268,3.365-5.596,3.74-9.9c0.381-4.339-0.285-7.702-1.984-9.984C139.648,10.304,136.902,9.116,133.223,9.116
		 M135.355,28.794c-0.926,1.159-2.233,1.725-4.006,1.725c-1.867,0-3.107-0.565-3.804-1.729c-0.763-1.279-1.021-3.354-0.778-6.165
		c0.258-2.91,0.896-5.023,1.907-6.278c0.937-1.158,2.265-1.718,4.063-1.718c1.744,0,2.949,0.558,3.693,1.714
		c0.795,1.246,1.067,3.359,0.813,6.282C136.998,25.457,136.357,27.529,135.355,28.794"/>
	<path fill="#F26722" d="M164.713,11.44c-1.128-1.541-3.016-2.325-5.605-2.325c-1.641,0-3.323,0.468-5.012,1.394
		c-0.803,0.441-1.566,0.917-2.287,1.435l0.188-2.158h-6.005l-2.232,25.551h5.999l1.503-17.141c1.125-0.883,2.281-1.647,3.444-2.282
		c1.19-0.646,2.192-0.974,2.976-0.974c0.934,0,1.377,0.174,1.58,0.323c0.275,0.193,0.461,0.527,0.568,1.031
		c0.092,0.437,0.15,1.511-0.077,4.15l-1.301,14.893h6.001l1.458-16.689C166.202,15.299,165.814,12.943,164.713,11.44"/>
	<path fill="#20419A" d="M91.492,7.413c-1.602-1.024-3.376-1.545-5.29-1.545c-3.25,0-5.96,1.224-8.062,3.63
		c-2.027,2.327-3.233,5.557-3.584,9.595c-0.354,4.079,0.192,7.273,1.631,9.49c1.504,2.323,3.897,3.506,7.118,3.506
		c1.582,0,3.099-0.329,4.52-0.976c0.584-0.266,1.146-0.561,1.667-0.885l-0.042,0.507c-0.153,1.766-0.64,3.016-1.442,3.705
		c-0.824,0.716-2.199,1.076-4.09,1.076c-2.464,0-4.581-0.639-6.283-1.897l-0.997-0.734l-2.801,5.13l0.731,0.51
		c2.264,1.572,5.253,2.369,8.882,2.369c3.864,0,6.796-0.885,8.696-2.625c1.905-1.736,3.026-4.358,3.32-7.774L97.57,6.539h-5.995
		L91.492,7.413z M86.202,11.467c1.585,0,3.188,0.659,4.759,1.953l-0.932,10.672c-1.916,1.587-3.768,2.393-5.497,2.393
		c-1.484,0-2.509-0.508-3.142-1.564c-0.703-1.169-0.938-3.157-0.695-5.918c0.22-2.485,0.833-4.421,1.828-5.744
		C83.424,12.051,84.625,11.467,86.202,11.467"/>
	<polygon fill="#F26722" points="76.637,32.884 80.084,38.484 73.836,38.014 	"/>
</g>
<g>
	<path fill="#23419B" d="M0.129,74.813v-8.566h1.4v8.566H0.129z"/>
	<path fill="#23419B" d="M9.21,72.486c0,0.762-0.275,1.359-0.826,1.793s-1.311,0.65-2.279,0.65s-1.762-0.15-2.379-0.451v-1.324
		c0.391,0.184,0.806,0.328,1.245,0.434s0.849,0.158,1.228,0.158c0.555,0,0.964-0.105,1.228-0.316s0.396-0.494,0.396-0.85
		c0-0.32-0.121-0.592-0.363-0.814s-0.742-0.486-1.5-0.791c-0.781-0.316-1.332-0.678-1.652-1.084s-0.48-0.895-0.48-1.465
		c0-0.715,0.254-1.277,0.762-1.688s1.189-0.615,2.045-0.615c0.82,0,1.637,0.18,2.449,0.539l-0.445,1.143
		c-0.762-0.32-1.441-0.48-2.039-0.48c-0.453,0-0.797,0.099-1.031,0.296s-0.352,0.458-0.352,0.782c0,0.223,0.047,0.413,0.141,0.571
		s0.248,0.308,0.463,0.448s0.602,0.326,1.16,0.557c0.629,0.262,1.09,0.506,1.383,0.732s0.508,0.482,0.645,0.768
		S9.21,72.1,9.21,72.486z"/>
	<path fill="#23419B" d="M18.954,70.518c0,1.395-0.349,2.479-1.046,3.252s-1.685,1.16-2.962,1.16c-1.293,0-2.286-0.384-2.979-1.151
		s-1.04-1.858-1.04-3.272s0.349-2.5,1.046-3.258s1.692-1.137,2.985-1.137c1.273,0,2.258,0.385,2.953,1.154
		S18.954,69.119,18.954,70.518z M12.415,70.518c0,1.055,0.213,1.854,0.639,2.399s1.057,0.817,1.893,0.817
		c0.832,0,1.46-0.27,1.884-0.809s0.636-1.342,0.636-2.408c0-1.051-0.21-1.848-0.63-2.391s-1.046-0.814-1.878-0.814
		c-0.84,0-1.474,0.271-1.901,0.814S12.415,69.467,12.415,70.518z"/>
	<path fill="#23419B" d="M30.063,69.902c0,1.688-0.34,2.947-1.02,3.779s-1.703,1.248-3.07,1.248c-0.52,0-0.893-0.031-1.119-0.094
		v-1.154c0.348,0.098,0.697,0.146,1.049,0.146c0.93,0,1.623-0.25,2.08-0.75s0.707-1.285,0.75-2.355h-0.07
		c-0.23,0.352-0.509,0.605-0.835,0.762s-0.708,0.234-1.146,0.234c-0.758,0-1.354-0.236-1.787-0.709s-0.65-1.121-0.65-1.945
		c0-0.895,0.251-1.606,0.753-2.136s1.187-0.794,2.054-0.794c0.609,0,1.141,0.148,1.594,0.445s0.803,0.728,1.049,1.292
		S30.063,69.113,30.063,69.902z M27.074,67.277c-0.477,0-0.842,0.155-1.096,0.466s-0.381,0.747-0.381,1.31
		c0,0.488,0.118,0.872,0.354,1.151s0.595,0.419,1.075,0.419c0.465,0,0.855-0.139,1.172-0.416s0.475-0.602,0.475-0.973
		c0-0.348-0.067-0.673-0.202-0.976s-0.323-0.542-0.565-0.718S27.387,67.277,27.074,67.277z"/>
	<path fill="#23419B" d="M37.404,70.529c0,1.488-0.239,2.594-0.718,3.316s-1.21,1.084-2.194,1.084c-0.953,0-1.676-0.373-2.168-1.119
		s-0.738-1.84-0.738-3.281c0-1.512,0.239-2.626,0.718-3.343s1.208-1.075,2.188-1.075c0.957,0,1.682,0.375,2.174,1.125
		S37.404,69.084,37.404,70.529z M32.98,70.529c0,1.168,0.12,2.002,0.36,2.502s0.624,0.75,1.151,0.75s0.913-0.254,1.157-0.762
		s0.366-1.338,0.366-2.49c0-1.148-0.122-1.979-0.366-2.493s-0.63-0.771-1.157-0.771s-0.911,0.252-1.151,0.756
		S32.98,69.361,32.98,70.529z"/>
	<path fill="#23419B" d="M44.733,70.529c0,1.488-0.239,2.594-0.718,3.316s-1.21,1.084-2.194,1.084c-0.953,0-1.676-0.373-2.168-1.119
		s-0.738-1.84-0.738-3.281c0-1.512,0.239-2.626,0.718-3.343s1.208-1.075,2.188-1.075c0.957,0,1.682,0.375,2.174,1.125
		S44.733,69.084,44.733,70.529z M40.31,70.529c0,1.168,0.12,2.002,0.36,2.502s0.624,0.75,1.151,0.75s0.913-0.254,1.157-0.762
		s0.366-1.338,0.366-2.49c0-1.148-0.122-1.979-0.366-2.493s-0.63-0.771-1.157-0.771s-0.911,0.252-1.151,0.756
		S40.31,69.361,40.31,70.529z"/>
	<path fill="#23419B" d="M50.299,74.813h-1.377v-5.531c0-0.66,0.016-1.184,0.047-1.57c-0.09,0.094-0.2,0.197-0.331,0.311
		s-0.569,0.473-1.315,1.078l-0.691-0.873l2.52-1.98h1.148V74.813z"/>
	<path fill="#23419B" d="M53.838,69.076c0-0.59,0.289-0.885,0.867-0.885c0.293,0,0.512,0.078,0.656,0.234s0.217,0.373,0.217,0.65
		s-0.075,0.497-0.226,0.659s-0.366,0.243-0.647,0.243s-0.496-0.08-0.645-0.24S53.838,69.357,53.838,69.076z M53.838,74.08
		c0-0.285,0.074-0.504,0.223-0.656s0.363-0.229,0.645-0.229c0.285,0,0.502,0.079,0.65,0.237s0.223,0.374,0.223,0.647
		c0,0.277-0.075,0.497-0.226,0.659s-0.366,0.243-0.647,0.243s-0.496-0.08-0.645-0.24S53.838,74.361,53.838,74.08z"/>
	<path fill="#23419B" d="M63.171,74.813h-5.807V73.77l2.209-2.221c0.652-0.668,1.085-1.142,1.298-1.421s0.368-0.542,0.466-0.788
		s0.146-0.51,0.146-0.791c0-0.387-0.116-0.691-0.349-0.914s-0.554-0.334-0.964-0.334c-0.328,0-0.646,0.061-0.952,0.182
		s-0.661,0.34-1.063,0.656l-0.744-0.908c0.477-0.402,0.939-0.688,1.389-0.855s0.928-0.252,1.436-0.252
		c0.797,0,1.436,0.208,1.916,0.624s0.721,0.976,0.721,1.679c0,0.387-0.069,0.754-0.208,1.102s-0.352,0.706-0.639,1.075
		s-0.765,0.868-1.433,1.497l-1.488,1.441V73.6h4.066V74.813z"/>
	<path fill="#23419B" d="M70.501,70.529c0,1.488-0.239,2.594-0.718,3.316s-1.21,1.084-2.194,1.084c-0.953,0-1.676-0.373-2.168-1.119
		s-0.738-1.84-0.738-3.281c0-1.512,0.239-2.626,0.718-3.343s1.208-1.075,2.188-1.075c0.957,0,1.682,0.375,2.174,1.125
		S70.501,69.084,70.501,70.529z M66.077,70.529c0,1.168,0.12,2.002,0.36,2.502s0.624,0.75,1.151,0.75s0.913-0.254,1.157-0.762
		s0.366-1.338,0.366-2.49c0-1.148-0.122-1.979-0.366-2.493s-0.63-0.771-1.157-0.771s-0.911,0.252-1.151,0.756
		S66.077,69.361,66.077,70.529z"/>
	<path fill="#23419B" d="M76.067,74.813H74.69v-5.531c0-0.66,0.016-1.184,0.047-1.57c-0.09,0.094-0.2,0.197-0.331,0.311
		s-0.569,0.473-1.315,1.078l-0.691-0.873l2.52-1.98h1.148V74.813z"/>
	<path fill="#23419B" d="M82.26,69.463c0.863,0,1.547,0.229,2.051,0.686s0.756,1.08,0.756,1.869c0,0.914-0.286,1.628-0.858,2.142
		s-1.386,0.771-2.44,0.771c-0.957,0-1.709-0.154-2.256-0.463v-1.248c0.316,0.18,0.68,0.318,1.09,0.416s0.791,0.146,1.143,0.146
		c0.621,0,1.094-0.139,1.418-0.416s0.486-0.684,0.486-1.219c0-1.023-0.652-1.535-1.957-1.535c-0.184,0-0.41,0.019-0.68,0.056
		s-0.506,0.079-0.709,0.126l-0.615-0.363l0.328-4.184h4.453v1.225h-3.24l-0.193,2.121c0.137-0.023,0.304-0.051,0.501-0.082
		S81.975,69.463,82.26,69.463z"/>
	<path fill="#23419B" d="M94.529,67.324c-0.805,0-1.438,0.285-1.898,0.855s-0.691,1.357-0.691,2.361
		c0,1.051,0.221,1.846,0.664,2.385s1.086,0.809,1.926,0.809c0.363,0,0.715-0.036,1.055-0.108s0.693-0.165,1.061-0.278v1.201
		c-0.672,0.254-1.434,0.381-2.285,0.381c-1.254,0-2.217-0.38-2.889-1.14s-1.008-1.847-1.008-3.261c0-0.891,0.162-1.67,0.488-2.338
		s0.799-1.18,1.416-1.535s1.342-0.533,2.174-0.533c0.875,0,1.684,0.184,2.426,0.551l-0.504,1.166
		c-0.289-0.137-0.596-0.257-0.918-0.36S94.885,67.324,94.529,67.324z"/>
	<path fill="#23419B" d="M101.653,74.93c-1.008,0-1.796-0.294-2.364-0.882s-0.853-1.397-0.853-2.429
		c0-1.059,0.264-1.891,0.791-2.496s1.252-0.908,2.174-0.908c0.855,0,1.531,0.26,2.027,0.779s0.744,1.234,0.744,2.145v0.744h-4.318
		c0.02,0.629,0.189,1.112,0.51,1.45s0.771,0.507,1.354,0.507c0.383,0,0.739-0.036,1.069-0.108s0.685-0.192,1.063-0.36v1.119
		c-0.336,0.16-0.676,0.273-1.02,0.34S102.095,74.93,101.653,74.93z M101.401,69.258c-0.438,0-0.788,0.139-1.052,0.416
		s-0.421,0.682-0.472,1.213h2.941c-0.008-0.535-0.137-0.94-0.387-1.216S101.839,69.258,101.401,69.258z"/>
	<path fill="#23419B" d="M109.504,68.215c0.277,0,0.506,0.02,0.686,0.059l-0.135,1.283c-0.195-0.047-0.398-0.07-0.609-0.07
		c-0.551,0-0.996,0.18-1.338,0.539s-0.514,0.826-0.514,1.4v3.387h-1.377v-6.48h1.078l0.182,1.143h0.07
		c0.215-0.387,0.496-0.693,0.842-0.92S109.105,68.215,109.504,68.215z"/>
	<path fill="#23419B" d="M114.285,73.816c0.336,0,0.672-0.053,1.008-0.158v1.037c-0.152,0.066-0.349,0.122-0.589,0.167
		s-0.489,0.067-0.747,0.067c-1.305,0-1.957-0.688-1.957-2.063v-3.492h-0.885v-0.609l0.949-0.504l0.469-1.371h0.85v1.441h1.846v1.043
		h-1.846v3.469c0,0.332,0.083,0.577,0.249,0.735S114.016,73.816,114.285,73.816z"/>
	<path fill="#23419B" d="M116.986,66.615c0-0.246,0.066-0.436,0.201-0.568s0.328-0.199,0.578-0.199c0.242,0,0.43,0.066,0.564,0.199
		s0.203,0.322,0.203,0.568c0,0.234-0.068,0.419-0.203,0.554s-0.322,0.202-0.564,0.202c-0.25,0-0.443-0.067-0.578-0.202
		S116.986,66.85,116.986,66.615z M118.445,74.813h-1.377v-6.48h1.377V74.813z"/>
	<path fill="#23419B" d="M124.146,69.375h-1.582v5.438h-1.383v-5.438h-1.066V68.73l1.066-0.422v-0.422
		c0-0.766,0.18-1.333,0.539-1.702s0.908-0.554,1.646-0.554c0.484,0,0.961,0.08,1.43,0.24l-0.363,1.043
		c-0.34-0.109-0.664-0.164-0.973-0.164c-0.313,0-0.54,0.097-0.683,0.29s-0.214,0.483-0.214,0.87v0.422h1.582V69.375z
		 M125.165,66.615c0-0.246,0.067-0.436,0.202-0.568s0.327-0.199,0.577-0.199c0.242,0,0.431,0.066,0.565,0.199
		s0.202,0.322,0.202,0.568c0,0.234-0.067,0.419-0.202,0.554s-0.323,0.202-0.565,0.202c-0.25,0-0.442-0.067-0.577-0.202
		S125.165,66.85,125.165,66.615z M126.624,74.813h-1.377v-6.48h1.377V74.813z"/>
	<path fill="#23419B" d="M131.908,74.93c-1.008,0-1.795-0.294-2.363-0.882s-0.854-1.397-0.854-2.429
		c0-1.059,0.264-1.891,0.791-2.496s1.252-0.908,2.174-0.908c0.855,0,1.531,0.26,2.027,0.779s0.744,1.234,0.744,2.145v0.744h-4.318
		c0.02,0.629,0.189,1.112,0.51,1.45s0.771,0.507,1.354,0.507c0.383,0,0.74-0.036,1.07-0.108s0.684-0.192,1.063-0.36v1.119
		c-0.336,0.16-0.676,0.273-1.02,0.34S132.35,74.93,131.908,74.93z M131.656,69.258c-0.438,0-0.787,0.139-1.051,0.416
		s-0.422,0.682-0.473,1.213h2.941c-0.008-0.535-0.137-0.94-0.387-1.216S132.094,69.258,131.656,69.258z"/>
	<path fill="#23419B" d="M138.658,74.93c-0.809,0-1.439-0.293-1.893-0.879s-0.68-1.408-0.68-2.467c0-1.063,0.229-1.89,0.688-2.481
		s1.095-0.888,1.907-0.888c0.852,0,1.5,0.314,1.945,0.943h0.07c-0.066-0.465-0.1-0.832-0.1-1.102v-2.361h1.383v9.117h-1.078
		l-0.24-0.85h-0.064C140.156,74.607,139.51,74.93,138.658,74.93z M139.027,73.816c0.566,0,0.979-0.159,1.236-0.478
		s0.391-0.835,0.398-1.55v-0.193c0-0.816-0.133-1.396-0.398-1.74s-0.682-0.516-1.248-0.516c-0.484,0-0.857,0.196-1.119,0.589
		s-0.393,0.952-0.393,1.679c0,0.719,0.127,1.267,0.381,1.644S138.52,73.816,139.027,73.816z"/>
	<path fill="#23419B" d="M151.817,67.324c-0.805,0-1.438,0.285-1.898,0.855s-0.691,1.357-0.691,2.361
		c0,1.051,0.222,1.846,0.665,2.385s1.085,0.809,1.925,0.809c0.363,0,0.715-0.036,1.055-0.108s0.693-0.165,1.061-0.278v1.201
		c-0.672,0.254-1.434,0.381-2.285,0.381c-1.254,0-2.217-0.38-2.889-1.14s-1.008-1.847-1.008-3.261c0-0.891,0.163-1.67,0.489-2.338
		s0.798-1.18,1.415-1.535s1.342-0.533,2.174-0.533c0.875,0,1.684,0.184,2.426,0.551l-0.504,1.166
		c-0.289-0.137-0.595-0.257-0.917-0.36S152.173,67.324,151.817,67.324z"/>
	<path fill="#23419B" d="M161.859,71.561c0,1.059-0.271,1.885-0.814,2.479s-1.299,0.891-2.268,0.891
		c-0.605,0-1.141-0.137-1.605-0.41s-0.822-0.666-1.072-1.178s-0.375-1.105-0.375-1.781c0-1.051,0.27-1.871,0.809-2.461
		s1.299-0.885,2.279-0.885c0.938,0,1.68,0.302,2.227,0.905S161.859,70.537,161.859,71.561z M157.143,71.561
		c0,1.496,0.553,2.244,1.658,2.244c1.094,0,1.641-0.748,1.641-2.244c0-1.48-0.551-2.221-1.652-2.221
		c-0.578,0-0.996,0.191-1.256,0.574S157.143,70.846,157.143,71.561z"/>
	<path fill="#23419B" d="M169.383,74.813H168v-3.996c0-0.496-0.094-0.866-0.281-1.11s-0.48-0.366-0.879-0.366
		c-0.531,0-0.92,0.173-1.168,0.519s-0.373,0.921-0.373,1.726v3.229h-1.377v-6.48H165l0.193,0.85h0.07
		c0.18-0.309,0.441-0.547,0.783-0.715s0.717-0.252,1.127-0.252c0.996,0,1.656,0.34,1.98,1.02h0.094
		c0.191-0.32,0.461-0.57,0.809-0.75s0.746-0.27,1.195-0.27c0.773,0,1.338,0.195,1.691,0.586s0.529,0.986,0.529,1.787v4.225h-1.377
		v-3.996c0-0.496-0.094-0.866-0.283-1.11s-0.484-0.366-0.883-0.366c-0.535,0-0.926,0.167-1.174,0.501s-0.373,0.847-0.373,1.538
		V74.813z"/>
	<path fill="#23419B" d="M179.162,74.93c-0.82,0-1.457-0.295-1.91-0.885h-0.082c0.055,0.547,0.082,0.879,0.082,0.996v2.654h-1.377
		v-9.363h1.113c0.031,0.121,0.096,0.41,0.193,0.867h0.07c0.43-0.656,1.074-0.984,1.934-0.984c0.809,0,1.438,0.293,1.889,0.879
		s0.678,1.408,0.678,2.467s-0.23,1.885-0.689,2.479S179.971,74.93,179.162,74.93z M178.828,69.34c-0.547,0-0.947,0.16-1.199,0.48
		s-0.377,0.832-0.377,1.535v0.205c0,0.789,0.125,1.36,0.375,1.714s0.658,0.53,1.225,0.53c0.477,0,0.844-0.195,1.102-0.586
		s0.387-0.947,0.387-1.67c0-0.727-0.129-1.276-0.385-1.649S179.324,69.34,178.828,69.34z"/>
	<path fill="#23419B" d="M187.887,74.813l-0.275-0.902h-0.047c-0.313,0.395-0.627,0.663-0.943,0.806s-0.723,0.214-1.219,0.214
		c-0.637,0-1.135-0.172-1.492-0.516s-0.535-0.83-0.535-1.459c0-0.668,0.248-1.172,0.744-1.512s1.252-0.525,2.268-0.557l1.119-0.035
		v-0.346c0-0.414-0.098-0.724-0.291-0.929s-0.492-0.308-0.898-0.308c-0.332,0-0.65,0.049-0.955,0.146s-0.598,0.213-0.879,0.346
		l-0.445-0.984c0.352-0.184,0.736-0.323,1.154-0.419s0.813-0.144,1.184-0.144c0.824,0,1.445,0.18,1.865,0.539
		s0.631,0.924,0.631,1.693v4.365H187.887z M185.836,73.875c0.5,0,0.9-0.14,1.203-0.419s0.455-0.671,0.455-1.175v-0.563l-0.832,0.035
		c-0.648,0.023-1.121,0.132-1.416,0.325s-0.441,0.489-0.441,0.888c0,0.289,0.086,0.513,0.258,0.671S185.492,73.875,185.836,73.875z"
		/>
	<path fill="#23419B" d="M196.973,74.813h-1.383v-3.984c0-0.5-0.1-0.873-0.301-1.119s-0.521-0.369-0.959-0.369
		c-0.582,0-1.008,0.172-1.277,0.516s-0.404,0.92-0.404,1.729v3.229h-1.377v-6.48h1.078l0.193,0.85h0.07
		c0.195-0.309,0.473-0.547,0.832-0.715s0.758-0.252,1.195-0.252c1.555,0,2.332,0.791,2.332,2.373V74.813z"/>
	<path fill="#23419B" d="M198.385,68.332h1.5l1.318,3.674c0.199,0.523,0.332,1.016,0.398,1.477h0.047
		c0.035-0.215,0.1-0.476,0.193-0.782s0.59-1.763,1.488-4.368h1.488l-2.771,7.342c-0.504,1.348-1.344,2.021-2.52,2.021
		c-0.305,0-0.602-0.033-0.891-0.1v-1.09c0.207,0.047,0.443,0.07,0.709,0.07c0.664,0,1.131-0.385,1.4-1.154l0.24-0.609
		L198.385,68.332z"/>
</g>
</svg>
